<svg xmlns="http://www.w3.org/2000/svg" xmlns:xlink="http://www.w3.org/1999/xlink" width="219" zoomAndPan="magnify" viewBox="0 0 164.25 374.999989" height="500" preserveAspectRatio="xMidYMid meet" version="1.0"><defs><clipPath id="e3e408c34e"><path d="M 9 0.851562 L 155 0.851562 L 155 29 L 9 29 Z M 9 0.851562 " clip-rule="nonzero"/></clipPath><clipPath id="2ed7b99f00"><path d="M 28 72 L 135 72 L 135 374.148438 L 28 374.148438 Z M 28 72 " clip-rule="nonzero"/></clipPath><clipPath id="5336515d8b"><path d="M 0.09375 0.851562 L 82 0.851562 L 82 125 L 0.09375 125 Z M 0.09375 0.851562 " clip-rule="nonzero"/></clipPath><clipPath id="5500682437"><path d="M 82 0.851562 L 163.503906 0.851562 L 163.503906 125 L 82 125 Z M 82 0.851562 " clip-rule="nonzero"/></clipPath></defs><g clip-path="url(#e3e408c34e)"><path fill="#545454" d="M 154.15625 28.292969 L 9.410156 28.292969 L 9.410156 0.859375 L 154.1875 0.859375 L 154.15625 28.292969 " fill-opacity="1" fill-rule="nonzero"/></g><g clip-path="url(#2ed7b99f00)"><path fill="#00a3ff" d="M 102.957031 142.527344 L 125.863281 72.632812 L 37.746094 72.632812 L 60.652344 142.527344 L 28.925781 314.613281 L 81.808594 374.144531 L 134.675781 314.613281 L 102.957031 142.527344 " fill-opacity="1" fill-rule="nonzero"/></g><path fill="#677073" d="M 105.039062 153.839844 L 48.0625 210.816406 L 45.347656 225.554688 L 106.914062 164 L 105.039062 153.839844 " fill-opacity="1" fill-rule="nonzero"/><path fill="#677073" d="M 110.8125 185.15625 L 108.941406 174.996094 L 42.402344 241.539062 L 39.683594 256.277344 L 110.8125 185.15625 " fill-opacity="1" fill-rule="nonzero"/><path fill="#677073" d="M 31.355469 317.347656 L 37.019531 323.730469 L 120.890625 239.847656 L 119.019531 229.6875 L 31.355469 317.347656 " fill-opacity="1" fill-rule="nonzero"/><path fill="#677073" d="M 52.402344 341.042969 L 125.984375 267.457031 L 124.113281 257.308594 L 46.738281 334.675781 L 52.402344 341.042969 " fill-opacity="1" fill-rule="nonzero"/><path fill="#ffffff" d="M 103.351562 144.652344 L 102.957031 142.527344 L 103.65625 140.398438 L 59.957031 140.398438 L 60.648438 142.527344 L 60.261719 144.652344 L 103.351562 144.652344 " fill-opacity="1" fill-rule="nonzero"/><g clip-path="url(#5336515d8b)"><path fill="#677073" d="M 81.21875 70.945312 L 28.367188 124.789062 L 0.0898438 14.855469 L 9.390625 0.859375 L 81.21875 70.945312 " fill-opacity="1" fill-rule="nonzero"/></g><g clip-path="url(#5500682437)"><path fill="#677073" d="M 82.378906 70.945312 L 135.226562 124.789062 L 163.503906 14.855469 L 154.167969 0.859375 L 82.378906 70.945312 " fill-opacity="1" fill-rule="nonzero"/></g></svg>